# xmcd CD database file
#
# Track frame offsets:
#	150
#	27895
#	47495
#
# Disc length: 901 seconds
#
# Revision: 0
# Processed by: cddbd v1.5.1PL0 Copyright (c) Steve Scherf et al.
# Submitted via: CDex 1.51
#
DISCID=19038303
DTITLE=伊藤サチコ - カレンダー
DYEAR=1900
DGENRE=JPop
TTITLE0=カレンダー
TTITLE1=あの日のこと
TTITLE2=コップが割れた日
EXTD=
EXTT0=
EXTT1=
EXTT2=
PLAYORDER=
